<svg width="77" height="32" viewBox="0 0 77 32" fill="none" xmlns="http://www.w3.org/2000/svg">
<path fill-rule="evenodd" clip-rule="evenodd" d="M8.63679 12.6699V18.2308L11.3293 27.6527L3.95508 12.6699H0V31.6353H4.49338V26.0742L1.80056 16.6525L9.17482 31.6353H13.1299V12.6699H8.63679Z" fill="#FAFAFA"/>
<path fill-rule="evenodd" clip-rule="evenodd" d="M38.909 12.6699V18.2308L41.6016 27.6527L34.2276 12.6699H30.2722V31.6353H34.7653V26.0742L32.0728 16.6525L39.4473 31.6353H43.4021V12.6699H38.909Z" fill="#FAFAFA"/>
<path fill-rule="evenodd" clip-rule="evenodd" d="M19.6951 31.6353H24.0717V12.6699H19.6951V31.6353Z" fill="#FAFAFA"/>
<path fill-rule="evenodd" clip-rule="evenodd" d="M51.5682 24.8705C51.5682 26.8128 51.4653 27.8602 50.2857 27.8602C49.7729 27.8602 49.3621 27.7326 49.0029 27.5283L47.9771 31.2077C49.0287 31.7189 50.2341 32 51.5939 32C55.0825 32 56.0826 29.3168 56.0826 25.8674V8.45752L51.5682 12.9549V24.8705Z" fill="#FAFAFA"/>
<mask id="mask0_2621_2445" style="mask-type:luminance" maskUnits="userSpaceOnUse" x="60" y="12" width="17" height="20">
<path fill-rule="evenodd" clip-rule="evenodd" d="M60.4519 12.9548H76.0815V31.8114H60.4519V12.9548Z" fill="white"/>
</mask>
<g mask="url(#mask0_2621_2445)">
<path fill-rule="evenodd" clip-rule="evenodd" d="M66.8606 24.7807L68.2129 15.2711L69.5654 24.7807H66.8606ZM70.3758 12.9548H66.1304L60.4519 31.8114H64.5883L66.3197 28.6058H69.8622L71.9447 31.8114H76.0817L70.3758 12.9548Z" fill="#FAFAFA"/>
</g>
<mask id="mask1_2621_2445" style="mask-type:luminance" maskUnits="userSpaceOnUse" x="18" y="0" width="7" height="9">
<path fill-rule="evenodd" clip-rule="evenodd" d="M18.4294 0H24.9622V8.55418H18.4294V0Z" fill="white"/>
</mask>
<g mask="url(#mask1_2621_2445)">
<path fill-rule="evenodd" clip-rule="evenodd" d="M23.3305 5.52043C23.3305 6.1487 23.2022 6.55123 22.9463 6.72829C22.6641 6.90535 22.1809 6.98853 21.4968 6.97783C20.9534 6.97783 20.5641 6.86763 20.329 6.64778C20.0833 6.44906 19.9609 6.20727 19.9609 5.92296C19.9499 5.2733 20.4202 4.9379 21.3714 4.91624H23.3305V5.52043ZM24.0312 0.596074C23.4215 0.188196 22.6062 -0.0102603 21.5849 0.000438183C20.376 -0.0209587 19.4613 0.384512 18.8411 1.21685L20.1244 2.22384C20.2648 1.98152 20.4578 1.80874 20.703 1.7063C20.9376 1.62018 21.2582 1.57685 21.6652 1.57685C22.7868 1.55572 23.3423 1.91412 23.3316 2.65231V3.53386H21.0718C20.2063 3.54456 19.5493 3.78608 19.1012 4.25788C18.6529 4.71925 18.4287 5.30125 18.4287 6.00387C18.4287 6.73858 18.6867 7.34197 19.203 7.81377C19.6927 8.29654 20.3913 8.54314 21.2987 8.55411C21.8509 8.55411 22.2837 8.4843 22.5965 8.34495C22.9144 8.21095 23.1488 8.00153 23.3002 7.71776H23.3316V8.45728H24.9615V2.75261C24.951 1.73358 24.6409 1.01438 24.0312 0.596074Z" fill="#FAFAFA"/>
</g>
<mask id="mask2_2621_2445" style="mask-type:luminance" maskUnits="userSpaceOnUse" x="28" y="0" width="8" height="9">
<path fill-rule="evenodd" clip-rule="evenodd" d="M28.7588 0H35.7002V8.55327H28.7588V0Z" fill="white"/>
</mask>
<g mask="url(#mask2_2621_2445)">
<path fill-rule="evenodd" clip-rule="evenodd" d="M33.623 6.69498C33.325 6.88301 32.9408 6.97689 32.4699 6.97689C31.4188 6.97689 30.5611 6.61983 29.8971 5.9057L28.7588 7.05712C29.8177 8.05449 31.0099 8.55303 32.3351 8.55303C33.3108 8.54207 34.1114 8.31152 34.7377 7.86004C35.3692 7.4198 35.6897 6.79394 35.7002 5.983C35.7002 5.29028 35.5254 4.71818 35.1751 4.26697C34.7989 3.80507 34.1876 3.54189 33.3408 3.47743L31.9926 3.37258C31.5955 3.32952 31.3184 3.23029 31.1616 3.07463C30.9887 2.93502 30.9079 2.77133 30.9189 2.58304C30.9189 2.28776 31.0258 2.04598 31.2403 1.85822C31.4441 1.67019 31.8022 1.57578 32.3142 1.57578C32.7639 1.57578 33.161 1.64372 33.5059 1.77905C33.856 1.93097 34.1879 2.12301 34.5017 2.3557L35.5131 1.14169C35.1163 0.787841 34.6676 0.506205 34.1664 0.297318C33.9057 0.200764 33.6262 0.125608 33.3288 0.0721157C33.0313 0.0239727 32.6946 -0.000366211 32.3188 -0.000366211C31.4524 -0.000366211 30.7372 0.214405 30.1734 0.643412C29.594 1.07269 29.2992 1.71647 29.2885 2.57501C29.2992 3.2886 29.5239 3.84385 29.9629 4.24049C30.3914 4.64864 30.9479 4.88427 31.6325 4.94873L33.0748 5.07738C33.3779 5.08834 33.6206 5.15521 33.8037 5.27878C33.9814 5.39673 34.0703 5.60615 34.0703 5.90651C34.0703 6.24431 33.9213 6.50749 33.623 6.69498Z" fill="#FAFAFA"/>
</g>
<mask id="mask3_2621_2445" style="mask-type:luminance" maskUnits="userSpaceOnUse" x="39" y="0" width="8" height="9">
<path fill-rule="evenodd" clip-rule="evenodd" d="M39.4988 0H46.0316V8.55418H39.4988V0Z" fill="white"/>
</mask>
<g mask="url(#mask3_2621_2445)">
<path fill-rule="evenodd" clip-rule="evenodd" d="M44.4013 5.52034C44.4013 6.14861 44.273 6.55114 44.0171 6.7282C43.7352 6.90525 43.252 6.98844 42.5676 6.97774C42.0242 6.97774 41.6349 6.86754 41.4 6.64769C41.1544 6.44897 41.0317 6.20718 41.0317 5.92287C41.0207 5.27321 41.491 4.93781 42.4422 4.91615H44.4013V5.52034ZM45.1008 0.595952C44.4914 0.188074 43.6757 -0.0103823 42.6545 0.000316112C41.4455 -0.0210808 40.5308 0.38439 39.9107 1.21673L41.194 2.22372C41.3347 1.9814 41.5277 1.80862 41.7728 1.70618C42.0074 1.62006 42.328 1.57673 42.735 1.57673C43.8567 1.5556 44.4119 1.914 44.4012 2.65219V3.53374H42.1414C41.2759 3.54444 40.6192 3.78596 40.1708 4.25776C39.7225 4.71913 39.4983 5.30112 39.4983 6.00374C39.4983 6.73846 39.7563 7.34185 40.2726 7.81365C40.7625 8.29642 41.4611 8.54302 42.3683 8.55398C42.9205 8.55398 43.3533 8.48418 43.6664 8.34483C43.984 8.21083 44.2186 8.00141 44.3698 7.71763H44.4012V8.45716H46.0311V2.75249C46.0206 1.73346 45.7108 1.01426 45.1008 0.595952Z" fill="#FAFAFA"/>
</g>
<mask id="mask4_2621_2445" style="mask-type:luminance" maskUnits="userSpaceOnUse" x="50" y="0" width="8" height="12">
<path fill-rule="evenodd" clip-rule="evenodd" d="M50.5859 0H57.0699V11.8362H50.5859V0Z" fill="white"/>
</mask>
<g mask="url(#mask4_2621_2445)">
<path fill-rule="evenodd" clip-rule="evenodd" d="M55.4228 5.21713C55.3862 5.5239 55.3159 5.80367 55.2117 6.05695C55.1178 6.29927 54.9586 6.49826 54.7344 6.65446C54.5099 6.80504 54.2047 6.88047 53.8186 6.88047C53.4532 6.88047 53.1638 6.79969 52.9498 6.63815C52.7257 6.48195 52.5611 6.27761 52.4569 6.02459C52.3576 5.77157 52.2926 5.48914 52.2615 5.17701C52.2298 4.88093 52.2145 4.58485 52.2145 4.2885C52.2145 3.97129 52.2298 3.65649 52.2615 3.3441C52.2926 3.04829 52.3576 2.7736 52.4569 2.52059C52.5611 2.26784 52.7257 2.06323 52.9498 1.90703C53.1638 1.75083 53.4532 1.67274 53.8186 1.67274C54.2047 1.67274 54.5099 1.74014 54.7344 1.87467C54.9586 2.0199 55.1178 2.21916 55.2117 2.47191C55.3159 2.7145 55.3862 2.99426 55.4228 3.31174C55.4332 3.62921 55.4386 3.95498 55.4386 4.2885C55.4386 4.60625 55.4332 4.9157 55.4228 5.21713ZM56.4926 1.09408C56.0338 0.391464 55.3068 0.0266473 54.311 -0.000366211C53.4565 0.0266473 52.7576 0.351345 52.2158 0.973459V0.104478H50.5859V11.8361L52.2158 10.2124V7.56851C52.5128 7.86726 52.8384 8.10236 53.1926 8.27327C53.4132 8.39844 53.6551 8.47761 53.9153 8.51907L57.0481 5.39833C57.0623 5.07818 57.0699 4.71042 57.0699 4.28837C57.0699 3.27469 57.0307 2.55603 56.9528 2.1321C56.8696 1.70309 56.7163 1.357 56.4926 1.09408Z" fill="#FAFAFA"/>
</g>
</svg>
