<svg xmlns="http://www.w3.org/2000/svg" viewBox="0 0 300 80"><g fill="#FFF"><path d="M91.8 38.5H78.2c.1 1.1.4 1.9.9 2.4.7.8 1.5 1.2 2.6 1.2.7 0 1.3-.2 1.9-.5.4-.2.8-.6 1.2-1.1l6.7.6c-1 1.8-2.3 3.1-3.7 3.8-1.4.8-3.5 1.2-6.2 1.2-2.3 0-4.2-.3-5.5-1-1.3-.7-2.5-1.7-3.3-3.2-.9-1.4-1.3-3.1-1.3-5.1 0-2.8.9-5 2.7-6.7 1.8-1.7 4.2-2.6 7.4-2.6 2.5 0 4.5.4 6 1.2 1.5.8 2.6 1.9 3.4 3.3.8 1.5 1.2 3.4 1.2 5.7l-.4.8zm-6.9-3.2c-.1-1.3-.5-2.3-1.1-2.8-.6-.6-1.3-.9-2.3-.9-1.1 0-1.9.4-2.6 1.3-.4.5-.7 1.3-.8 2.4h6.8z"/><path d="M90 28h8l2.8 4.9 3.3-4.9h7.5l-6 8.4 6.5 9.3h-7.9l-3.3-5.7-3.9 5.7h-7.4l6.4-9.3-6-8.4z"/><path d="M119.9 21.2V28h3.7v5h-3.7v6.3c0 .8.1 1.3.2 1.5.2.4.6.6 1.2.6.5 0 1.2-.1 2.1-.4l.5 4.7c-1.7.4-3.2.6-4.7.6-1.7 0-2.9-.2-3.7-.6-.8-.4-1.4-1.1-1.8-2-.4-.9-.6-2.3-.6-4.3V33h-2.5v-5h2.5v-3.3l6.8-3.5zm4.5 6.8h6.4v2.9c.6-1.3 1.2-2.1 1.9-2.6s1.5-.7 2.4-.7c1 0 2.1.3 3.3.9l-2.1 4.8c-.8-.3-1.4-.5-1.9-.5-.9 0-1.6.4-2.1 1.1-.7 1-1.1 3-1.1 5.8v5.9h-6.8V28zm19.3 5.7l-6.5-.7c.2-1.1.6-2 1.1-2.7.5-.7 1.1-1.2 2-1.7.6-.3 1.5-.6 2.6-.8 1.1-.2 2.3-.3 3.5-.3 2 0 3.7.1 4.9.3 1.2.2 2.3.7 3.1 1.4.6.5 1 1.2 1.4 2.1.3.9.5 1.8.5 2.6v7.8c0 .8.1 1.5.2 2s.3 1.1.7 1.8h-6.4c-.3-.5-.4-.8-.5-1-.1-.2-.2-.6-.2-1.1-.9.9-1.8 1.5-2.7 1.8-1.2.5-2.6.7-4.2.7-2.1 0-3.7-.5-4.8-1.5-1.1-1-1.6-2.2-1.6-3.6 0-1.3.4-2.5 1.2-3.3.8-.9 2.2-1.5 4.4-1.9 2.5-.5 4.2-.9 5-1.1.8-.2 1.6-.5 2.4-.8 0-.8-.2-1.4-.5-1.8-.3-.3-1-.5-1.8-.5-1.1 0-2 .2-2.5.5-.7.5-1 1.1-1.3 1.8zm5.9 3.6c-.9.3-1.9.6-2.9.9-1.4.4-2.3.7-2.6 1.1-.4.4-.6.8-.6 1.3s.2 1 .6 1.3c.4.3.9.5 1.6.5.8 0 1.5-.2 2.1-.6.7-.4 1.1-.8 1.4-1.3.3-.5.4-1.2.4-2.1v-1.1zm26.8-16.1v24.5H170v-2.6c-.9 1.1-1.7 1.9-2.4 2.3-1 .5-2.1.8-3.3.8-2.4 0-4.3-.9-5.5-2.8-1.3-1.8-1.9-4.1-1.9-6.7 0-2.9.7-5.2 2.1-6.7 1.4-1.6 3.2-2.3 5.4-2.3 1.1 0 2 .2 2.9.5.9.4 1.6.9 2.3 1.6v-8.5h6.8zm-6.8 15.6c0-1.4-.3-2.4-.9-3.1-.6-.7-1.3-1-2.2-1-.8 0-1.5.3-2 1s-.8 1.8-.8 3.3c0 1.4.3 2.5.8 3.2.6.7 1.2 1 2 1 .9 0 1.6-.3 2.2-1 .6-.8.9-1.9.9-3.4zm7.6.1c0-2.7.9-4.9 2.7-6.7 1.8-1.8 4.3-2.6 7.4-2.6 3.5 0 6.2 1 8 3.1 1.5 1.7 2.2 3.7 2.2 6.1 0 2.7-.9 5-2.7 6.7-1.8 1.7-4.3 2.6-7.5 2.6-2.8 0-5.2-.7-6.9-2.2-2.2-1.8-3.2-4.1-3.2-7zm6.8 0c0 1.6.3 2.7 1 3.5.6.8 1.4 1.1 2.4 1.1s1.8-.4 2.4-1.1c.6-.7.9-1.9.9-3.6 0-1.5-.3-2.7-.9-3.4-.6-.8-1.4-1.1-2.4-1.1s-1.8.4-2.5 1.1c-.6.8-.9 1.9-.9 3.5zm14.3-8.9h6.3v2.6c.9-1.1 1.8-1.8 2.8-2.3.9-.5 2.1-.7 3.4-.7 1.4 0 2.5.2 3.4.7.8.5 1.5 1.2 2 2.2 1.1-1.2 2-1.9 2.9-2.4.9-.4 2-.6 3.3-.6 1.9 0 3.4.6 4.4 1.7 1.1 1.1 1.6 2.9 1.6 5.3v11.1h-6.8v-10c0-.8-.2-1.4-.5-1.8-.5-.6-1-.9-1.7-.9-.8 0-1.4.3-1.9.9-.5.6-.7 1.5-.7 2.8v9.1H210v-9.8c0-.8 0-1.3-.1-1.6-.1-.4-.4-.8-.8-1.1-.4-.3-.8-.4-1.3-.4-.8 0-1.4.3-1.9.9-.5.6-.8 1.6-.8 2.9v9h-6.8V28zm-125 28.8v-6.7h1.3l2.8 4.5v-4.5h1.3v6.7h-1.4l-2.7-4.4v4.4h-1.3zm7.7-3.4l-1.2-.2c.1-.5.4-.8.7-1 .3-.2.8-.3 1.4-.3.6 0 1 .1 1.3.2.3.1.5.3.6.5.1.2.2.6.2 1.2v1.5c0 .4 0 .7.1.9 0 .2.1.4.2.7H83c0-.1-.1-.2-.1-.4v-.2c-.2.2-.5.4-.7.5-.2.1-.5.2-.8.2-.5 0-.9-.1-1.2-.4-.3-.3-.4-.6-.4-1 0-.3.1-.5.2-.7.1-.2.3-.4.6-.5.2-.1.6-.2 1-.3.6-.1 1-.2 1.3-.3v-.1c0-.2-.1-.4-.2-.5-.1-.1-.4-.2-.7-.2-.2 0-.4 0-.5.1-.3-.1-.4.1-.5.3zm1.8 1c-.2.1-.4.1-.8.2s-.6.2-.7.2c-.2.2-.3.3-.3.5s.1.3.2.5c.1.1.3.2.5.2s.5-.1.7-.2c.2-.1.3-.3.3-.4v-1zm3.7-2.5v4.7c0 .6 0 1.1-.1 1.3-.1.3-.2.5-.5.6-.2.1-.5.2-.9.2h-.4c-.1 0-.3-.1-.5-.1l.2-1.1h.3c.1 0 .2 0 .3-.1l.2-.2v-5.3h1.4zm-1.2-.6v-1.2h1.3v1.2h-1.3zm3.5 5.5l-1.5-4.9h1.3l.9 3.2.8-3.2h1.2l.8 3.2.9-3.2h1.3L93 56.8h-1.2l-.8-3.1-.8 3.1h-1.4zm6.4-5.5v-1.2h1.3v1.2h-1.3zm0 5.5v-4.9h1.3v4.9h-1.3zm5.4-1.6l1.3.2c-.2.5-.4.8-.8 1.1-.4.2-.8.4-1.3.4-.8 0-1.5-.3-1.9-.8-.3-.4-.5-1-.5-1.7 0-.8.2-1.4.6-1.9.4-.5 1-.7 1.6-.7.7 0 1.3.2 1.7.7.4.5.6 1.2.6 2.2h-3.2c0 .4.1.7.3.9.2.2.4.3.7.3.2 0 .4-.1.5-.2.2 0 .4-.2.4-.5zm.1-1.3c0-.4-.1-.7-.3-.8-.2-.2-.4-.3-.7-.3-.3 0-.5.1-.7.3-.2.2-.3.5-.3.8h2zm-.1 2.9c-.1 0-.1.1-.2.1 0 .1-.1.1-.1.2s-.1.1-.1.2v.2c0 .1 0 .2.1.3.1.1.1.1.3.1h.2c.1 0 .1 0 .2-.1v.8c-.3.1-.5.2-.7.2-.2 0-.3 0-.4-.1-.1 0-.2-.1-.3-.2-.1-.1-.1-.2-.2-.3 0-.1-.1-.2-.1-.3 0-.2.1-.4.2-.6.1-.2.3-.4.4-.5h.7zm2.4 0v-6.7h1.3v3.6l1.5-1.7h1.6l-1.7 1.8 1.8 3.1h-1.4l-1.2-2.2-.6.6v1.6l-1.3-.1zm4.8-1.4l1.3-.2.3.6c.2.1.4.2.7.2.3 0 .6-.1.8-.2.1-.1.2-.2.2-.3 0-.1 0-.2-.1-.2-.1-.1-.2-.1-.4-.2-1-.2-1.7-.4-2-.6-.4-.3-.6-.6-.6-1.1 0-.4.2-.8.5-1.1.3-.3.8-.4 1.5-.4s1.2.1 1.5.3c.3.2.5.5.7 1l-1.2.2c-.1-.2-.2-.3-.3-.4-.1-.1-.4-.2-.6-.2-.3 0-.6 0-.7.1-.1.1-.1.2-.1.3 0 .1 0 .2.1.2.1.1.5.2 1.2.4s1.2.3 1.4.6c.3.2.4.5.4 1 0 .4-.2.8-.6 1.2-.4.3-.9.5-1.7.5-.7 0-1.2-.1-1.6-.4-.3-.5-.6-.8-.7-1.3zm5.1 1.4v-1l1.8-2.1c.3-.3.5-.6.7-.7h-2.3v-1.1h4v.9l-1.9 2.1-.7.7h2.7v1.1l-4.3.1zm8.1-1.6l1.3.2c-.2.5-.4.8-.8 1.1-.4.2-.8.4-1.3.4-.8 0-1.5-.3-1.9-.8-.3-.4-.5-1-.5-1.7 0-.8.2-1.4.6-1.9.4-.5 1-.7 1.6-.7.7 0 1.3.2 1.7.7.4.5.6 1.2.6 2.2h-3.2c0 .4.1.7.3.9.2.2.4.3.7.3.2 0 .4-.1.5-.2.2 0 .3-.2.4-.5zm0-1.3c0-.4-.1-.7-.3-.8-.2-.2-.4-.3-.7-.3-.3 0-.5.1-.7.3-.2.2-.3.5-.3.8h2zm5-3.8h2.7c.5 0 .9 0 1.2.1.3 0 .5.1.7.3.2.1.4.3.5.6.1.2.2.5.2.8 0 .3-.1.6-.3.9-.2.3-.4.5-.7.6.4.1.7.3.9.6.2.3.3.6.3 1 0 .3-.1.6-.2.9-.1.3-.3.5-.6.7-.2.2-.5.3-.9.3H126v-6.8zm1.4 1.1v1.6h1.9c.2 0 .4-.1.5-.2.1-.1.2-.3.2-.5s-.1-.4-.2-.5c-.1-.1-.3-.2-.5-.2h-1.2l-.7-.2zm0 2.7v1.8h2.2c.2 0 .4-.1.5-.3.1-.1.2-.3.2-.6 0-.2-.1-.4-.1-.5-.1-.1-.2-.2-.4-.3-.2-.1-.6-.1-1.2-.1h-1.2zm5.4-2.6v-1.2h1.3v1.2h-1.3zm0 5.5v-4.9h1.3v4.9h-1.3zm5.8 0v-.7c-.2.3-.4.5-.7.6-.3.2-.6.2-.9.2-.3 0-.6-.1-.9-.2-.3-.1-.4-.3-.6-.6-.1-.3-.2-.6-.2-1.1v-3.1h1.3v2.2c0 .7 0 1.1.1 1.3 0 .2.1.3.3.4.1.1.3.1.5.1s.4-.1.6-.2c.2-.1.3-.3.4-.4.1-.2.1-.6.1-1.3v-2.1h1.3v4.9h-1.3zm3.7 0H141v-4.9h1.2v.7c.2-.3.4-.5.6-.6.2-.1.3-.2.6-.2s.6.1.8.2l-.4 1.1c-.2-.1-.4-.2-.6-.2-.2 0-.3 0-.5.1-.1.1-.2.3-.3.5-.1.3-.1.8-.1 1.6v1.7zm2.2-2.5c0-.4.1-.8.3-1.2.2-.4.5-.7.9-.9.4-.2.8-.3 1.3-.3.7 0 1.3.2 1.8.7.5.5.7 1.1.7 1.8s-.2 1.3-.7 1.8c-.5.5-1.1.7-1.8.7-.4 0-.9-.1-1.3-.3-.4-.2-.7-.5-.9-.9-.2-.4-.3-.9-.3-1.4zm1.3.1c0 .5.1.9.3 1.1.2.3.5.4.8.4.3 0 .6-.1.8-.4.2-.3.3-.6.3-1.1 0-.5-.1-.8-.3-1.1-.2-.3-.5-.4-.8-.4-.3 0-.6.1-.8.4-.2.2-.3.6-.3 1.1zm7.3 2.4v-6.7h2.2c.8 0 1.4 0 1.6.1.4.1.7.3 1 .7.3.3.4.8.4 1.3 0 .4-.1.8-.2 1-.2.3-.3.5-.6.7-.2.2-.5.3-.7.3-.3.1-.8.1-1.4.1h-.9v2.5h-1.4zm1.4-5.6v1.9h.7c.5 0 .9 0 1.1-.1.2-.1.3-.2.4-.3.1-.1.2-.3.2-.5s-.1-.4-.2-.6c-.1-.2-.3-.3-.5-.3h-1l-.7-.1zm6.1 5.6h-1.3v-4.9h1.2v.7c.2-.3.4-.5.5-.6.2-.1.4-.2.6-.2.3 0 .6.1.8.2l-.4 1.1c-.2-.1-.4-.2-.6-.2-.2 0-.3 0-.5.1-.1.1-.2.3-.3.5-.1.3-.1.8-.1 1.6l.1 1.7zm2.1-2.5c0-.4.1-.8.3-1.2.2-.4.5-.7.9-.9.4-.2.8-.3 1.3-.3.7 0 1.3.2 1.8.7.5.5.7 1.1.7 1.8s-.2 1.3-.7 1.8c-.5.5-1.1.7-1.8.7-.4 0-.9-.1-1.3-.3-.4-.2-.7-.5-.9-.9-.2-.4-.3-.9-.3-1.4zm1.3.1c0 .5.1.9.3 1.1.2.3.5.4.8.4.3 0 .6-.1.8-.4.2-.3.3-.6.3-1.1 0-.5-.1-.8-.3-1.1-.2-.3-.5-.4-.8-.4-.3 0-.6.1-.8.4-.2.2-.3.6-.3 1.1zm6-2.5v4.7c0 .6 0 1.1-.1 1.3-.1.3-.2.5-.5.6-.2.1-.5.2-.9.2h-.4c-.1 0-.3-.1-.5-.1l.2-1.1h.3c.1 0 .2 0 .3-.1l.2-.2v-5.3h1.4zm-1.3-.6v-1.2h1.3v1.2h-1.3zm5.5 3.9l1.3.2c-.2.5-.4.8-.8 1.1-.4.2-.8.4-1.3.4-.8 0-1.5-.3-1.9-.8-.3-.4-.5-1-.5-1.7 0-.8.2-1.4.6-1.9.4-.5 1-.7 1.6-.7.7 0 1.3.2 1.7.7.4.5.6 1.2.6 2.2h-3.2c0 .4.1.7.3.9.2.2.4.3.7.3.2 0 .4-.1.5-.2.2 0 .3-.2.4-.5zm0-1.3c0-.4-.1-.7-.3-.8-.2-.2-.4-.3-.7-.3-.3 0-.5.1-.7.3-.2.2-.3.5-.3.8h2zm2.3 2.9v-6.7h1.3v3.6l1.5-1.7h1.6l-1.7 1.8 1.8 3.1h-1.4l-1.2-2.2-.6.6v1.6l-1.3-.1zm7.5-4.9v1h-.9v2.7c0 .1.1.1.1.2.1 0 .1.1.2.1s.3 0 .5-.1l.1 1c-.3.1-.6.2-1 .2-.2 0-.4 0-.6-.1-.2-.1-.3-.2-.4-.3-.1-.1-.1-.3-.2-.5v-3h-.6v-1h.6v-1l1.3-.7v1.7l.9-.2zm.6 2.4c0-.4.1-.8.3-1.2.2-.4.5-.7.9-.9.4-.2.8-.3 1.3-.3.7 0 1.3.2 1.8.7.5.5.7 1.1.7 1.8s-.2 1.3-.7 1.8c-.5.5-1.1.7-1.8.7-.4 0-.9-.1-1.3-.3-.4-.2-.7-.5-.9-.9-.2-.4-.3-.9-.3-1.4zm1.3.1c0 .5.1.9.3 1.1.2.3.5.4.8.4.3 0 .6-.1.8-.4.2-.3.3-.6.3-1.1 0-.5-.1-.8-.3-1.1-.2-.3-.5-.4-.8-.4-.3 0-.6.1-.8.4-.2.2-.3.6-.3 1.1zm.6-3.1l.6-1.4h1.4l-1.3 1.4h-.7zm5.1 5.5l-1.5-4.9h1.3l.9 3.2.8-3.2h1.2l.8 3.2.9-3.2h1.3l-1.6 4.9h-1.2l-.8-3.1-.8 3.1h-1.3zm8.7-3.3c0-.7.1-1.3.3-1.7l.6-.9c.3-.3.6-.5.9-.6.4-.2.9-.3 1.4-.3 1 0 1.8.3 2.4.9.6.6.9 1.5.9 2.6s-.3 1.9-.9 2.5c-.6.6-1.4.9-2.4.9s-1.8-.3-2.4-.9c-.5-.6-.8-1.5-.8-2.5zm1.4-.1c0 .8.2 1.3.5 1.7.3.4.8.6 1.3.6s1-.2 1.3-.6c.3-.4.5-1 .5-1.8s-.2-1.3-.5-1.7c-.3-.4-.8-.6-1.3-.6-.6 0-1 .2-1.3.6-.3.5-.5 1.1-.5 1.8zm10.6 3.4H211v-2.5c0-.5 0-.9-.1-1-.1-.2-.1-.3-.3-.4-.1-.1-.3-.1-.4-.1-.2 0-.4.1-.6.2-.2.1-.3.3-.4.5-.1.2-.1.6-.1 1.1v2.2h-1.3v-4.9h1.2v.7c.4-.5 1-.8 1.6-.8.3 0 .5.1.8.2.2.1.4.2.5.4.1.2.2.3.3.5 0 .2.1.5.1.9v3zm1.3 0v-6.7h1.3v6.7h-1.3zm2.6-5.5v-1.2h1.3v1.2h-1.3zm0 5.5v-4.9h1.3v4.9h-1.3zm7 0h-1.3v-2.5c0-.5 0-.9-.1-1-.1-.2-.1-.3-.3-.4-.1-.1-.3-.1-.4-.1-.2 0-.4.1-.6.2-.2.1-.3.3-.4.5-.1.2-.1.6-.1 1.1v2.2h-1.3v-4.9h1.2v.7c.4-.5 1-.8 1.6-.8.3 0 .5.1.8.2.2.1.4.2.5.4.1.2.2.3.3.5 0 .2.1.5.1.9v3zm4.2-1.6l1.3.2c-.2.5-.4.8-.8 1.1-.4.2-.8.4-1.3.4-.8 0-1.5-.3-1.9-.8-.3-.4-.5-1-.5-1.7 0-.8.2-1.4.6-1.9.4-.5 1-.7 1.6-.7.7 0 1.3.2 1.7.7.4.5.6 1.2.6 2.2h-3.2c0 .4.1.7.3.9.2.2.4.3.7.3.2 0 .4-.1.5-.2.2 0 .3-.2.4-.5zm0-1.3c0-.4-.1-.7-.3-.8-.2-.2-.4-.3-.7-.3-.3 0-.5.1-.7.3-.2.2-.3.5-.3.8h2z"/></g></svg>