<?xml version="1.0" encoding="UTF-8"?>
<svg width="177px" height="40px" viewBox="0 0 177 40" version="1.1" xmlns="http://www.w3.org/2000/svg" xmlns:xlink="http://www.w3.org/1999/xlink">
    <title>Group 16</title>
    <defs>
        <polygon id="path-1" points="0 39.9999367 176.590087 39.9999367 176.590087 0 0 0"></polygon>
    </defs>
    <g id="CarLease" stroke="none" stroke-width="1" fill="none" fill-rule="evenodd">
        <g id="HomePage" transform="translate(-2120.000000, -13198.000000)">
            <g id="FOOTER" transform="translate(0.000000, 12450.000000)">
                <g id="3" transform="translate(500.000000, 718.000000)">
                    <g id="Group-16" transform="translate(1620.000000, 30.000000)">
                        <path d="M27.0691654,0 L26.8005587,2.8306528 L19.1134713,1.13422268 L25.7273974,13.2446204 L18.0279712,30.0190935 L13.6391463,22.0178407 L0,18.2336182 L6.68163145,32.5390611 L15.9433427,34.56073 L13.4464709,39.9999367 L26.5942789,39.9999367 L26.9258452,39.9999367 L41.4432628,39.9999367 L32.2869061,34.0304769 L34.6483672,29.1212068 L43.1336817,32.6570709 L38.5854013,20.9374026 L38.6024858,20.901968 L34.0953348,11.6579741 L48.3586991,7.15272142 L27.0691654,0 Z M28.428018,2.09190526 L43.3551477,7.10747907 L27.4763466,12.1227365 L28.428018,2.09190526 Z M22.1076926,3.38273609 L26.513602,4.35497215 L26.0257438,10.5560222 L22.1076926,3.38273609 Z M27.50577,13.7394388 L32.6007552,12.1300132 L36.8797961,20.9067137 L31.5636612,31.9569217 L27.50577,13.7394388 Z M19.2052215,31.1700844 L26.3383274,15.6304427 L30.279158,33.3211527 L19.2052215,31.1700844 Z M7.76175313,31.1878016 L2.82970366,20.6276665 L12.5944592,23.3371457 L17.222151,31.7743704 L16.6055262,33.1183531 L7.76175313,31.1878016 Z M35.3216241,27.722174 L37.6650515,22.8508695 L40.3723161,29.8270508 L35.3216241,27.722174 Z M18.5395578,32.6203708 L29.7520687,34.798015 L26.2627125,38.4496742 L15.8639312,38.4496742 L18.5395578,32.6203708 Z M31.408635,35.3086525 L36.2264712,38.4496742 L28.4071369,38.4496742 L31.408635,35.3086525 Z" id="Fill-1" fill="#FEFEFE"></path>
                        <g id="Group-15" transform="translate(0.000158, 0.000063)">
                            <path d="M63.7089556,26.5389124 C62.9812814,26.9596979 62.1397103,27.1716726 61.1779148,27.1716726 C60.3236885,27.1716726 59.5612124,26.9818445 58.8873228,26.608516 C58.2134332,26.2351875 57.6882422,25.7194879 57.3085861,25.0614173 C56.9257662,24.4065105 56.7359381,23.6693448 56.7359381,22.8499204 C56.7359381,22.0083493 56.9257662,21.2585284 57.3085861,20.6036216 C57.6882422,19.9487148 58.2134332,19.4393428 58.8873228,19.0755057 C59.5612124,18.7116686 60.3300161,18.5313319 61.1968976,18.5313319 C62.5193664,18.5313319 63.6488434,18.9995745 64.5853285,19.9360596 L66.024858,18.5313319 C65.45221,17.8764251 64.7435186,17.3797083 63.9019475,17.0380178 C63.0572126,16.6994911 62.1207275,16.5286458 61.0924921,16.5286458 C59.8269717,16.5286458 58.6880033,16.8007327 57.675587,17.3449065 C56.6631707,17.8890803 55.8722204,18.6420649 55.2964086,19.6038605 C54.7237606,20.5624922 54.4358547,21.6445121 54.4358547,22.8499204 C54.4358547,24.0553286 54.7237606,25.1405123 55.2964086,26.099144 C55.8722204,27.0577758 56.6600069,27.8107604 57.6692594,28.3549342 C58.6753481,28.899108 59.8048251,29.1711949 61.0576903,29.1711949 C61.9467184,29.1711949 62.8135999,29.0383152 63.655171,28.7693921 C64.4967421,28.4973052 65.2370715,28.1113215 65.8666679,27.6082771 L65.8666679,22.7107131 L63.7089556,22.7107131 L63.7089556,26.5389124 Z" id="Fill-2" fill="#FEFEFE"></path>
                            <path d="M83.6376435,25.0709087 C83.2611512,25.7321431 82.7454516,26.2478427 82.0905448,26.6180074 C81.435638,26.9850083 80.6984724,27.1716726 79.8790479,27.1716726 C79.0596234,27.1716726 78.3224578,26.9850083 77.6675509,26.6180074 C77.0094803,26.2478427 76.4969446,25.7321431 76.1204522,25.0709087 C75.7471237,24.4096743 75.5604594,23.6693448 75.5604594,22.8499204 C75.5604594,22.0304959 75.7471237,21.2901664 76.1204522,20.628932 C76.4969446,19.9676976 77.0094803,19.451998 77.6675509,19.0849971 C78.3224578,18.7148324 79.0596234,18.5313319 79.8790479,18.5313319 C80.6984724,18.5313319 81.435638,18.7148324 82.0905448,19.0849971 C82.7454516,19.451998 83.2611512,19.9676976 83.6376435,20.628932 C84.0109721,21.2901664 84.1976363,22.0304959 84.1976363,22.8499204 C84.1976363,23.6693448 84.0109721,24.4096743 83.6376435,25.0709087 M85.6371658,19.6038605 C85.0645178,18.6420649 84.2735675,17.8890803 83.2674788,17.3449065 C82.2613901,16.8007327 81.1319131,16.5286458 79.8790479,16.5286458 C78.6261827,16.5286458 77.4967057,16.8007327 76.490617,17.3449065 C75.4845282,17.8890803 74.693578,18.6452288 74.12093,19.6101881 C73.5451182,20.5783112 73.2603761,21.6571674 73.2603761,22.8499204 C73.2603761,24.0458371 73.5451182,25.1246933 74.12093,26.0896526 C74.693578,27.054612 75.4845282,27.8107604 76.490617,28.3549342 C77.4967057,28.899108 78.6261827,29.1711949 79.8790479,29.1711949 C81.1319131,29.1711949 82.2613901,28.899108 83.2674788,28.3549342 C84.2735675,27.8107604 85.0645178,27.0577758 85.6371658,26.099144 C86.2129776,25.1405123 86.4977197,24.0553286 86.4977197,22.8499204 C86.4977197,21.6445121 86.2129776,20.5624922 85.6371658,19.6038605" id="Fill-4" fill="#FEFEFE"></path>
                            <path d="M103.844873,18.7433066 C103.424087,18.085236 102.819801,17.5821916 102.028851,17.2310097 C101.2379,16.8798278 100.310907,16.7058187 99.2447058,16.7058187 L94.1889517,16.7058187 L94.1889517,28.9971858 L96.4700523,28.9971858 L96.4700523,18.6357373 L99.1403003,18.6357373 C100.133734,18.6357373 100.889882,18.847712 101.405582,19.2684976 C101.921281,19.6892831 102.177549,20.2935691 102.177549,21.0781918 C102.177549,21.8628144 101.921281,22.4639366 101.405582,22.8847222 C100.889882,23.3086715 100.133734,23.5174824 99.1403003,23.5174824 L96.4700523,23.5174824 L98.4062985,25.4505648 L99.2447058,25.4505648 C100.310907,25.4505648 101.2379,25.273392 102.028851,24.92221 C102.819801,24.5710281 103.424087,24.06482 103.844873,23.4035855 C104.265658,22.7423511 104.477633,21.9672199 104.477633,21.0781918 C104.477633,20.1765085 104.265658,19.3982134 103.844873,18.7433066" id="Fill-6" fill="#FEFEFE"></path>
                            <polygon id="Fill-8" fill="#FEFEFE" points="120.666771 16.7058187 120.666771 21.7805556 114.310695 21.7805556 114.310695 16.7058187 112.02643 16.7058187 112.02643 28.9971858 114.310695 28.9971858 114.310695 23.729457 120.666771 23.729457 120.666771 28.9971858 122.947872 28.9971858 122.947872 16.7058187"></polygon>
                            <mask id="mask-2" fill="white">
                                <use xlink:href="#path-1"></use>
                            </mask>
                            <g id="Clip-11"></g>
                            <path d="M131.518577,18.6199183 L140.73473,18.6199183 L140.73473,16.7058187 L131.518577,16.7058187 L131.518577,18.6199183 Z M131.518577,23.6946552 L140.73473,23.6946552 L140.73473,21.8153574 L131.518577,21.8153574 L131.518577,23.6946552 Z M131.518577,28.9971858 L140.73473,28.9971858 L140.73473,27.0830862 L131.518577,27.0830862 L131.518577,28.9971858 Z" id="Fill-10" fill="#FEFEFE" mask="url(#mask-2)"></path>
                            <path d="M156.221536,24.9570119 C157.066271,24.6311403 157.711686,24.1312598 158.16411,23.4668616 C158.613369,22.7992995 158.837999,22.0020217 158.837999,21.0781918 C158.837999,20.1765085 158.626024,19.3982134 158.205239,18.7433066 C157.784453,18.085236 157.180167,17.5821916 156.389217,17.2310097 C155.598267,16.8798278 154.671273,16.7058187 153.605072,16.7058187 L148.549318,16.7058187 L148.549318,28.9971858 L150.833582,28.9971858 L150.833582,18.6357373 L153.500667,18.6357373 C154.4941,18.6357373 155.250249,18.847712 155.765948,19.2684976 C156.281648,19.6892831 156.537916,20.2935691 156.537916,21.0781918 C156.537916,21.8628144 156.281648,22.4671004 155.765948,22.8942136 C155.250249,23.3213267 154.4941,23.5364652 153.500667,23.5364652 L152.750846,23.5364652 L154.06066,25.3967802 L154.079642,25.3967802 L156.5917,28.9971858 L159.049974,28.9971858 L156.221536,24.9570119 Z" id="Fill-12" fill="#FEFEFE" mask="url(#mask-2)"></path>
                            <polygon id="Fill-13" fill="#FEFEFE" mask="url(#mask-2)" points="174.340783 16.7058187 170.708739 22.6917303 167.108333 16.7058187 164.669043 16.7058187 169.496687 24.6944164 169.496687 28.9971858 171.778104 28.9971858 171.778104 24.6596146 176.590245 16.7058187"></polygon>
                            <polygon id="Fill-14" fill="#FEFEFE" mask="url(#mask-2)" points="131.518577 28.9971858 133.425084 28.9971858 133.425084 21.8153574 131.518577 21.8153574"></polygon>
                        </g>
                    </g>
                </g>
            </g>
        </g>
    </g>
</svg>