<svg xmlns="http://www.w3.org/2000/svg" viewBox="110 5 300 80"><path fill="#FFF" d="M269.5 34L263 56h4.1l1.9-6.2h6.9l1.8 6.2h4.2l-6.4-22h-6zm.3 12.4l1.8-6.1c.3-1.1.5-1.7.8-2.8h.3c.2 1.2.4 1.7.8 2.8l1.8 6.1h-5.5zm20.4 9.6V37.4h5.4V34h-14.9v3.4h5.4V56h4.1zm23.2-29.6l5.3 8.7v-5.2h43.8l-6.2 30.3H205.5l-8-13.1c2.3-1 3.5-2.8 3.5-6.1v-.2c0-5.8-4.3-6.9-9.4-6.9-2.2 0-3.6.1-5.5.1v22h3.9v-8.1h3.5l9.7 15.8h156.1l7.6-37.3h-53.5zM197 40.9c0 2.9-1.6 3.7-5.3 3.7H190v-7.2c5.3 0 7.1 0 7.1 3.4-.1 0-.1.1-.1.1zM313.5 37c.9 0 1.9.1 2.6.2l-2.2-3.6c-.1 0-.4-.1-.6-.1-5.1 0-7.3 1.5-7.3 5.8 0 3.2 1.7 5.1 4.9 6.4l3.2 1.4c2.1.9 2.7 1.7 2.7 3.1 0 2-1.2 2.7-3.8 2.7-2.7 0-4.1-.2-5.9-.4l-.6 3.2c1.1.3 4 .7 6.8.7 4.8 0 7.6-2.3 7.6-6.3 0-3.7-1.5-5.3-5.3-6.9l-2.9-1.2c-2.1-.9-2.7-1.6-2.7-2.9 0-1.7 1-2.1 3.5-2.1zM193.7 60.2h-36.3l6.2-30.3h147.9l-2.1-3.5H160.8l-7.7 37.3h46l-5.4-8.8v5.3zM302.2 56V33.7l-4 1.5V56h4zm28.2 0V37.4h5.4V34H321v3.4h5.4V56h4zm-127.3-3.4l2.1 3.4h1.1l1.9-6.2h6.9l1.8 6.2h4.2l-6.4-22h-6l-5.6 18.6zm7.6-12.3c.3-1.1.5-1.4.8-2.6h.3c.2 1.2.4 1.5.8 2.6l1.8 6.1H209l1.7-6.1zM167.9 34v22h3.9v-8h1.9c5 0 9.2-1.1 9.2-7v-.3c0-5.9-4.2-6.9-9.4-6.9-2.1 0-3.6 0-5.6.2zm11 6.7v.3c0 2.9-1.8 3.5-5.3 3.5h-1.8v-7.2h.6c4.7 0 6.5 0 6.5 3.4zm52.8-3.6c1.5 0 4.8.2 6.2.3v-3.2c-.7-.2-3.8-.7-6.9-.7-4.4 0-9.1 1.5-9.1 9.9v3.1c0 8 4.1 10 9 10 3.1 0 5.8-.4 7-.7V44.3l-3.8.2v8.3c-.8.1-1.8.1-2.9.1-3.5 0-5.3-1.3-5.3-6.3v-3.1c.1-5.6 2.3-6.4 5.8-6.4zM346 37c2.3 0 2.8.3 4.5.7l1.6-3.1c-1.9-.7-5-1-6.3-1-5.1 0-7.3 1.5-7.3 5.8 0 3.2 1.7 5.1 4.9 6.4l3.2 1.4c2.1.9 2.7 1.7 2.7 3.1 0 2-1.2 2.7-3.8 2.7-2.7 0-4.1-.2-5.9-.4l-.6 3.2c1.1.3 4 .7 6.8.7 4.8 0 7.6-2.3 7.6-6.3 0-3.7-1.5-5.3-5.3-6.9l-2.9-1.2c-2.1-.9-2.7-1.6-2.7-2.9 0-1.8.9-2.2 3.5-2.2zm-88.3 19h2l1.9-6.4V34h-4.4l-4.4 8.6c-.5.9-.9 1.9-1.3 2.9h-.1c-.4-.9-.9-1.9-1.3-2.8l-4.3-8.6h-4.4V56h3.9V43.8c0-1.4-.1-2.4-.1-3.8h.1c.5 1 1 2.1 1.4 3.1l3.1 6.2h3.2l3.2-6.2c.5-1 1-2 1.5-3.1h.1c-.1 1.4-.1 2.4-.1 3.8V56z"/></svg>