<svg xmlns="http://www.w3.org/2000/svg" viewBox="-140 -24 300 80"><path d="M-61.7 31.8c-.8 0-1.5-.6-1.5-1.5V7.9c0-.8.6-1.5 1.5-1.5h1.3c.8 0 1.6.5 1.8 1.4v.5c1.4-1.5 2.8-2.2 4.7-2.2 3.8 0 6.1 2 6.1 9.2 0 7.7-2 10.1-6 10.1-1.9 0-3.3-.8-4.2-1.6v6.7c0 .8-.6 1.5-1.5 1.5l-2.2-.2zm6-10.6c2 0 2.5-1 2.5-5.7 0-4.5-.5-5.5-2.3-5.5-1.2 0-1.9.5-2.6 1v9.2c.5.6 1.3 1 2.4 1zm12.9 3.6c-.8 0-1.5-.6-1.5-1.5V7.9c0-.8.6-1.5 1.5-1.5h1.3c.8 0 1.6.5 1.7 1.4l.2.6c1.1-1.6 2.7-2.4 4.4-2.4.3 0 .5 0 .7.1.4 0 .6.4.5.7l-.6 3.4c-.1.5-.5.7-1 .6-.4-.1-.6-.2-1-.2-1.2 0-1.8.3-2.7.8V23c0 .8-.6 1.5-1.5 1.5h-2.1v.3zm18.8.4c-5 0-8-2.8-8-9.7S-29.1 6-24 6s8 2.7 8 9.7c0 6.8-2.9 9.5-8 9.5zm0-3.8c2 0 2.6-1.3 2.6-6 0-4.9-.5-5.8-2.6-5.8s-2.5 1-2.5 6c0 4.6.5 5.8 2.5 5.8zm13 10.4c-.7.3-1.6-.1-1.9-.8l-.4-.7c-.4-.8-.1-1.7.6-2.3.9-.7 1.1-1.6 1.1-3.6V10.2l-.6-.2c-.8-.2-1.4-.9-1.4-1.7v-.4c0-.8.6-1.5 1.5-1.5h4.3c.8 0 1.5.6 1.5 1.5V24c-.1 4.3-1.3 6.6-4.7 7.8zm45.2-21.6c-.8 0-1.5-.6-1.5-1.5v-.8c0-.8.6-1.5 1.5-1.5h.5V2.2c0-.8.6-1.6 1.4-1.6l2.3-.4c.7-.1 1.4.5 1.4 1.2v5.1h1.9c.7 0 1.3.6 1.3 1.5v1c0 .8-.6 1.5-1.5 1.5h-1.9v9.2c0 1.6.5 1.9 1.4 1.9.4 0 .6-.1.8-.2.4-.1.8.2.8.5l.3 1.4c.2.7-.4 1.6-1.1 1.7-.6.2-1.3.3-2.2.3-3.1 0-5.1-1.1-5.1-4.6V10.2h-.3zm21.1 21.6c-.8 0-1.5-.6-1.5-1.5V7.9c0-.8.6-1.5 1.5-1.5h1.3c.8 0 1.6.5 1.8 1.4l.1.4C59.9 6.7 61.3 6 63.2 6c3.8 0 6.1 2 6.1 9.2 0 7.7-2 10.1-6 10.1-1.9 0-3.3-.8-4.2-1.6v6.7c0 .8-.6 1.5-1.5 1.5h-2.3zm6.1-10.6c2 0 2.5-1 2.5-5.7 0-4.5-.5-5.5-2.3-5.5-1.2 0-1.9.5-2.6 1v9.2c.4.6 1.3 1 2.4 1zm12.9 3.6c-.8 0-1.5-.6-1.5-1.5V7.9c0-.8.6-1.5 1.5-1.5h1.3c.8 0 1.6.5 1.7 1.4l.2.6C78.6 6.9 80.1 6 81.9 6c.3 0 .5 0 .7.1.4 0 .6.4.5.7l-.6 3.4c-.1.5-.5.7-1 .6-.4-.1-.6-.2-1-.2-1.2 0-1.8.3-2.7.8V23c0 .8-.6 1.5-1.5 1.5h-2.1v.3zm-68.2.5c-6.1 0-8.9-2.8-8.9-9.7C-2.8 8.6 0 6 4.9 6c5.5 0 7.7 3 7.7 9.8v.7c0 .4-.4.7-.6.7H2.8c.2 3.4 1.1 4 3.3 4 1.2 0 2-.4 2.8-.7.6-.4 1.6-.2 2 .5l.6 1c.5.6.3 1.6-.5 1.9-1.3.8-2.9 1.4-4.9 1.4zM5 9.6c-1.6 0-2.2.8-2.4 4.1h4.8C7.3 10.8 7 9.6 5 9.6zm12 15.8c-.8 0-1.5-.6-1.5-1.5v-2.5c0-.8.6-1.5 1.5-1.5h2.2c.8 0 1.5.6 1.5 1.5v2.5c0 .8-.6 1.5-1.5 1.5H17zM19.2.2L17 .5c-.7.1-1.4.8-1.4 1.6v13.5c0 .8.6 1.5 1.5 1.5h2.2c.8 0 1.5-.6 1.5-1.5V1.4C20.6.6 20.1 0 19.2.2zm8.5 15.4l3.7-7.9c.4-.5 0-1.2-.6-1.2h-2.7c-.8 0-1.6.5-2.1 1.3l-3.5 7c-.1.3-.2.5-.3.8 0 .3.1.6.3.8l3.6 7.6c.4.8 1.2 1.3 2.1 1.3h2.7c.6 0 1-.6.6-1.2l-3.8-8.5z" fill="#FFF"/></svg>