<svg xmlns="http://www.w3.org/2000/svg" viewBox="-140 -24 300 80"><path fill="#FFF" d="M-71.3 1.7L-61 16l-10.3 14.2h7.9l6.3-8.7 6.3 8.7h7.9L-63.3 1.7h-8zm34.8 0l-6.3 8.7-6.3-8.7H-57l20.6 28.4h7.9L-38.9 16l10.3-14.3h-7.9zm-64.8 9.7c0-4.5-2.9-8.2-7-9.7-1.1-.4-2.2-.6-3.5-.6H-123v29.2h6.6v-8.4h4.7l6.1 8.4h7.9l-7.7-10.7c2.6-2.1 4.1-5 4.1-8.2zm-9.2 3.7c-.5.1-1 .2-1.5.2h-4.5V7.4h4.5c2.2 0 4.1 1.7 4.1 4 0 1.6-1 3.2-2.6 3.7zm31.1-13.4c-1.4-.4-3-.6-4.5-.6-1.6 0-3.1.2-4.5.6-6.2 1.9-10.8 7.6-10.8 14.3s4.6 12.4 10.8 14.3c1.4.4 3 .6 4.5.6 1.6 0 3.1-.2 4.5-.6 6.2-1.9 10.8-7.6 10.8-14.3S-73.2 3.6-79.4 1.7zm-4.5 22.7c-4.8 0-8.8-3.8-8.8-8.6s4-8.6 8.8-8.6 8.8 3.8 8.8 8.6c-.1 4.9-4 8.6-8.8 8.6zM6.2 9.5H3.9c-1 0-1.7.2-2.2.7S1 11.4 1 12.4V19c0 1 .2 1.7.7 2.2s1.2.9 2.2.9h2.4c1 0 1.7-.2 2.2-.9.5-.5.9-1.2.9-2.2v-1c0-.2-.1-.4-.4-.4H7.7c-.2 0-.4.1-.4.4v1c0 1-.5 1.5-1.5 1.5H4.1c-1 0-1.5-.5-1.5-1.5v-6.3c0-1 .5-1.5 1.5-1.5h1.7c1 0 1.5.5 1.5 1.5v1c0 .2.1.4.4.4h1.2c.2 0 .4-.1.4-.4v-1c0-1-.2-1.7-.9-2.2-.4-.7-1.2-1-2.2-1zM18 17.2c1.2-.5 1.9-1.5 1.9-3v-1.6c0-1-.2-1.7-.9-2.2-.5-.5-1.4-.9-2.2-.9h-4.6c-.2 0-.4.1-.4.4v12c0 .2.1.4.4.4h1.2c.2 0 .4-.1.4-.4v-4.3c0-.1.1-.2.2-.2h2l2.1 4.6c.1.2.2.4.6.4H20c.4 0 .4-.1.2-.4L18 17.2zm0-2.8c0 1-.5 1.5-1.5 1.5H14c-.1 0-.2-.1-.2-.2v-4.2c0-.1.1-.2.2-.2h2.5c1 0 1.5.5 1.5 1.5v1.6zm11.3-4.9H23c-.2 0-.4.1-.4.4v12c0 .2.1.4.4.4h6.3c.2 0 .4-.1.4-.4v-1c0-.2-.1-.4-.4-.4h-4.5c-.1 0-.2-.1-.2-.2v-3.5c0-.1.1-.2.2-.2h3.8c.2 0 .4-.1.4-.4v-1c0-.2-.1-.4-.4-.4h-3.8c-.1 0-.2-.1-.2-.2v-3.2c0-.1.1-.2.2-.2h4.5c.2 0 .4-.1.4-.4v-.9c-.1-.2-.3-.4-.4-.4zm7.8 0h-2c-.2 0-.4.1-.5.4l-3.5 12c0 .2 0 .4.2.4h1.5c.1 0 .2-.1.4-.4l.7-2.6h4.3l.7 2.6c0 .1.1.2.1.2s.1.1.2.1h1.4c.2 0 .2-.1.2-.4l-3.5-12c.2-.1.1-.3-.2-.3zm-2.8 8.4l1.7-6.3h.1l1.7 6.3h-3.5zm15.2-8.4h-7.3c-.2 0-.4.1-.4.4v1c0 .2.1.4.4.4h2.5c.1 0 .2.1.2.2v10.6c0 .2.1.4.4.4h1.2c.2 0 .4-.1.4-.4V11.4c0-.1.1-.2.2-.2h2.5c.2 0 .4-.1.4-.4v-.9c-.1-.2-.2-.4-.5-.4zm3.8 0H52c-.2 0-.4.1-.4.4v12c0 .2.1.4.4.4h1.2c.2 0 .4-.1.4-.4v-12c0-.2-.1-.4-.3-.4zm11.4 0h-1.4c-.2 0-.4.1-.4.4l-2.5 10.4h-.1L57.7 9.9c0-.2-.1-.4-.4-.4h-1.5c-.2 0-.4.1-.2.4L59 22c0 .2.2.4.4.4h2c.2 0 .4-.1.4-.4l3.4-12c-.1-.3-.3-.5-.5-.5zm8.8 0h-6.3c-.2 0-.4.1-.4.4v12c0 .2.1.4.4.4h6.3c.2 0 .4-.1.4-.4v-1c0-.2-.1-.4-.4-.4H69c-.1 0-.2-.1-.2-.2v-3.5c0-.1.1-.2.2-.2h3.8c.2 0 .4-.1.4-.4v-1c0-.2-.1-.4-.4-.4H69c-.1 0-.2-.1-.2-.2v-3.2c0-.1.1-.2.2-.2h4.5c.2 0 .4-.1.4-.4v-.9c0-.2-.1-.4-.4-.4zm12.5 0h-2c-.2 0-.4.1-.5.4l-3.5 12c0 .2 0 .4.2.4h1.5c.1 0 .2-.1.4-.4l.7-2.6h4.3L88 22c0 .1.1.2.1.2s.1.1.2.1h1.4c.2 0 .2-.1.2-.4l-3.5-12c.1-.2-.1-.4-.4-.4zm-2.7 8.4l1.7-6.3h.1l1.7 6.3h-3.5zM97 9.5h-2.1c-1 0-1.7.2-2.2.7s-.7 1.2-.7 2.2V19c0 1 .2 1.7.7 2.2.5.5 1.2.9 2.2.9H97c1 0 1.7-.2 2.2-.9.5-.5.9-1.2.9-2.2v-3.4c0-.2-.1-.4-.4-.4h-3.4c-.2 0-.4.1-.4.4v1c0 .2.1.4.4.4H98c.1 0 .2.1.2.2v1.7c0 1-.5 1.5-1.5 1.5h-1.6c-1 0-1.5-.5-1.5-1.5v-6.5c0-1 .5-1.5 1.5-1.5h1.6c1 0 1.5.5 1.5 1.5v.6c0 .2.1.4.4.4h1.2c.2 0 .4-.1.4-.4v-.6c0-1-.2-1.7-.7-2.2-.8-.4-1.5-.7-2.5-.7zm12.5 0H103c-.2 0-.4.1-.4.4v12c0 .2.1.4.4.4h6.3c.2 0 .4-.1.4-.4v-1c0-.2-.1-.4-.4-.4h-4.5c-.1 0-.2-.1-.2-.2v-3.5c0-.1.1-.2.2-.2h3.8c.2 0 .4-.1.4-.4v-1c0-.2-.1-.4-.4-.4h-3.8c-.1 0-.2-.1-.2-.2v-3.2c0-.1.1-.2.2-.2h4.5c.2 0 .4-.1.4-.4v-.9c.1-.2-.1-.4-.2-.4zm11.2 0h-1.2c-.2 0-.4.1-.4.4v8.6h-.1l-4.8-8.7c-.1-.1-.2-.2-.5-.2h-1.1c-.2 0-.4.1-.4.4v12c0 .2.1.4.4.4h1.2c.2 0 .4-.1.4-.4v-8.4h.1l4.7 8.6c.1.2.2.4.5.4h1.1c.2 0 .4-.1.4-.4V9.9c-.1-.2-.1-.4-.3-.4zm8.4 0h-2.4c-1 0-1.7.2-2.2.7s-.7 1.2-.7 2.2V19c0 1 .2 1.7.7 2.2.5.5 1.2.9 2.2.9h2.4c1 0 1.7-.2 2.2-.9.5-.5.9-1.2.9-2.2v-1c0-.2-.1-.4-.4-.4h-1.2c-.2 0-.4.1-.4.4v1c0 1-.5 1.5-1.5 1.5H127c-1 0-1.5-.5-1.5-1.5v-6.3c0-1 .5-1.5 1.5-1.5h1.7c1 0 1.5.5 1.5 1.5v1c0 .2.1.4.4.4h1.2c.2 0 .4-.1.4-.4v-1c0-1-.2-1.7-.9-2.2-.6-.7-1.3-1-2.2-1zm13.8.2c0-.1-.1-.1-.2-.1H141c-.1 0-.4.1-.4.4l-2.4 5.5h-.1l-2.5-5.5c-.1-.2-.2-.4-.4-.4h-1.6c-.1 0-.1 0-.2.1v.2l3.7 7.7V22c0 .2.1.4.4.4h1.2c.2 0 .4-.1.4-.4v-4.3l3.7-7.7c.1-.1.1-.3.1-.3z"/></svg>