<svg xmlns="http://www.w3.org/2000/svg" viewBox="-140 -24 300 80"><title>trecwear</title><g fill="#FFF"><path d="M-52.7 17.3V2h-4.9V0h11.8v2h-4.9v15.3zm11.6 0V0h4.1c.9 0 1.7 0 2.6.2.5.1 1 .3 1.4.7.5.4 1 1 1.2 1.6.3.7.4 1.5.4 2.2.1 1.2-.3 2.4-1.2 3.2-1 .8-2.2 1.2-3.5 1.1h-.4l6.6 8.3h-2.6L-38.8 9h-.2v8.3h-2.1zM-39 1.7v5.8h1.6c1.1.1 2.2-.1 3.2-.6.6-.6.9-1.4.8-2.2.1-.9-.2-1.7-.8-2.3-1-.6-2.1-.8-3.2-.7H-39zm13.4 15.6V0h9.1v1.9h-7.1v5h7.1v1.9h-7.1v6.6h7.1v1.9zM3.5 4.2c-.7-.8-1.6-1.5-2.7-2-1-.4-2-.7-3.1-.7-1.9 0-3.6.8-5 2.1-.6.7-1.1 1.4-1.5 2.3-.2.9-.4 1.9-.4 2.8 0 .8.1 1.5.3 2.2.2.7.5 1.3.9 1.9.7.9 1.5 1.7 2.6 2.3 1 .5 2.1.8 3.3.8 1.1 0 2.1-.2 3.1-.7 1-.5 1.9-1.2 2.6-2v2.7c-.8.6-1.8 1.1-2.8 1.4-1 .3-2 .5-3.1.5-3.3 0-6.4-1.9-8-4.8-.7-1.3-1-2.8-1-4.2 0-1.2.2-2.5.7-3.6.5-1.1 1.2-2.1 2-3C-7.8 1.4-6.8.7-5.7.3c1.1-.4 2.3-.6 3.5-.6 1 0 2 .1 2.9.4 1 .3 1.9.8 2.8 1.4v2.7zM7.2 0h2.2l4.4 12.8L18.4-.7 23 12.8 27.5 0h2.2l-6.8 18-4.5-13.4L13.9 18zM34 17.3V0h9.2v1.9h-7.1v5h7.1v1.9h-7.1v6.6h7.1v1.9zm20.5-18l7.9 18h-2.2L57.9 12h-6.8l-2.2 5.3h-2.2l7.8-18zm0 4.6l-2.8 6.4h5.5l-2.7-6.4zm12.2 13.4V0h4.1c.9 0 1.7 0 2.5.2.5.1 1 .3 1.4.7.5.4.9 1 1.2 1.6.3.7.4 1.5.4 2.2.1 1.2-.3 2.4-1.2 3.3-1 .8-2.2 1.2-3.5 1.1h-.4l6.6 8.3h-2.6L69 9.1h-.3v8.3h-2zm2-15.6v5.8h1.6c1.1.1 2.2-.1 3.2-.6.6-.6.9-1.4.8-2.2.1-.9-.2-1.7-.8-2.3-1-.6-2.1-.8-3.2-.7h-1.6zm-81.1 19.8c-.7.6-1.4 1.3-1.9 2.1-.4.5-.9 1.3-1.6 2.4-.7 1.1-1.2 1.9-1.6 2.4h-1.3c1-.9 1.7-2 2.3-3.2.5-.9.7-1.5.8-1.7.3-.6.4-1.2.4-1.9v-.5c-.2 0-.3-.1-.5-.1-1.1.1-2.2.7-2.9 1.6-.5.5-.8 1.1-.8 1.8 0 .2 0 .4.1.6.7 0 1.4-.3 1.9-.9.4-.5.8-1.1 1.3-1.6-.2.6-.6 1.2-1 1.7-.4.6-1.1 1-1.8 1.2-.3.1-.6.1-.9 0-.1-.5-.1-.9.1-1.4.4-.9 1.1-1.7 1.9-2.4.7-.7 1.7-1.2 2.7-1.2.6-.1 1.1.3 1.2.9v.3c0 .8-.3 1.6-.8 2.3l.8-.8c.4-.5.6-.8.8-1 .2-.3.5-.6.7-.8.3-.3.6-.4.9-.5.1 0 .3 0 .4.1 0 .5-.1 1-.3 1.4-.3.4-.5.8-.8 1.3-.6 1.1-1.6 2.8-2.9 5-.4.6-.7 1.4-.8 2.1 0 .2.1.5.2.7.3-.1.6-.2.8-.5.2-.3.4-.5.7-.6-.1.4-.4.8-.7 1-.3.3-.8.5-1.3.5-.3 0-.6-.2-.8-.5-.1-.2-.1-.4-.1-.6.1-.8.3-1.7.7-2.4.5-.9 1.2-2.1 2.1-3.6 1.1-1.7 1.7-2.8 2-3.3v.1"/><path d="M-11.6 27.9c.2 0 .4-.1.7-.4v.5c-.4.4-1 .6-1.5.4-.3.2-.7.3-1 .3h-.4c-.1-.3-.2-.6-.2-.9 0-.9.4-1.7 1-2.2.6-.6 1.3-1 2.1-1.2 0 .1-.1.2-.3.3l-.5.3c-.8.7-1.3 1.6-1.3 2.7 0 .2 0 .4.1.6 1.2-.5 1.9-1.6 2-2.9-.1-.2-.2-.3-.4-.2.2-.4.5-.6.9-.5.2.2.3.5.3.8 0 .5-.2 1-.5 1.4l-1 1"/><path d="M-9.7 26.6c-.7.8-1.1 1.2-1.2 1.3v-.5c.8-.5 1.4-1.3 1.8-2.1.1-.4.3-.8.5-1.3.1-.4.5-.7 1-.7.2 0 .3 0 .5.1-.1.2-.2.4-.4.6-.1.2-.3.4-.3.6.1.1.2.1.3.1.1 0 .3 0 .4-.1.2 0 .3-.1.5-.1s.3 0 .4.1c-.1.7-.6 1.3-1.1 1.7-.6.4-1 .9-1.3 1.6.6.1 1.3-.1 1.8-.5v.5c-.5.5-1.2.8-2 .8-.3 0-.6-.1-.9-.1 0-.6.2-1.3.6-1.8.3-.4.7-.9 1-1.3-.7.3-1.2.6-1.6 1.1"/><path d="M-4.2 27.9c-.4.5-1 .8-1.6.9-.2 0-.4-.1-.7-.1-.1-.1-.2-.3-.3-.5 0-.2.1-.4.2-.6-.2.2-.4.3-.5.4v-.5c.7-.6 1.3-1.4 1.7-2.2-.1-.1-.2-.1-.3 0-.1 0-.2 0-.3-.1.1-.5.4-.7 1-.6.5-.6.9-1.3 1.3-2 .3-.6.7-1.2 1.1-1.7h.7c.1 0 .2 0 .3.1-.9 1.6-1.6 2.8-2.1 3.6.1.1.1.1.2.1s.2 0 .3-.1c.1 0 .2 0 .3-.1h.1c-.1.5-.6.7-1.4.8-.4.7-1 1.7-1.4 2.6.1 0 .2.1.3.1.4-.1.8-.3 1.1-.6v.5z"/><path d="M-.9 24.9c.2-.3.6-.5.9-.6.1 0 .3 0 .4.1-.3.6-.7 1.2-1 1.8-.3.5-.4 1-.4 1.6.2-.2.4-.3.6-.4v.6c-.3.3-.7.5-1.1.6-.2 0-.3-.1-.4-.4 0-.1-.1-.3 0-.4 0-.3.1-.5.2-.8.1-.4.2-.7.3-.8-.4.3-.8.6-1.1 1-.2.3-.5.7-.9 1.4h-.7l.6-1.2-.7.6v-.4c.7-.5 1.2-1.1 1.6-1.8C-1.3 23.5-.5 22 0 21.2h1.4C.3 22.6-.3 23.3-.3 23.3c-.6.7-1.1 1.5-1.4 2.3.2-.1.4-.3.8-.7m10.7-4.6s.1.1 0 .1c0 .1-.1.3-.2.4l-.3.3c0 .2-.3.4-.6.9-.3.3-.5.7-.8 1-.3.3-.5.7-.6 1.1 0 .6-.1 1.2-.1 1.8 0 .5-.2 1-.5 1.5-.6.8-1.6 1.3-2.6 1.2-.5.5-.9 1.1-1.2 1.6-.3.6-.9 1.1-1.5 1.3.2-.4.6-.9 1.1-1.5.5-.7.9-1.2 1.1-1.5 0-.1-.1-.2-.3-.3l-.3-.3c-.1-.8.2-1.6.7-2.2.5-.5 1.1-.8 1.9-.9 0 .2-.2.3-.3.4-.2.1-.4.1-.6.2-.5.4-.8 1-.9 1.7 0 .2.1.5.2.7.5-.6 1.2-1.5 2.2-2.8-.1-2.3 1.4-4.3 3.6-4.7M4.5 28h.3c-.1 0 .1 0 .7-.1.4-.6.6-1.2.7-1.9v-.3c-.7.7-1.2 1.5-1.7 2.3m4.4-6.6s-.1 0 0 0c0-.2 0-.3.2-.4.1-.1.2-.2.2-.4-.5.2-.8.5-1.1.9-.3.4-.4.9-.4 1.4.1-.1.3-.4.6-.8 0-.3.2-.5.5-.7m1.6 6.6c.3-.1.6-.2.9-.5v.4c-.3.3-.6.5-1 .6-.2 0-.4 0-.5-.1-.1 0-.1 0-.2-.1-.3.1-.5.2-.8.2-.2 0-.3 0-.5-.1C7.3 30 6.5 31.2 6 32.1H5c.9-1.4 1.8-3 2.8-4.9-.4.3-.7.6-.9.7v-.5c.5-.3 1-.7 1.4-1.1.5-.9.9-1.6 1-2h1c-.1.2-.2.4-.3.7.5-.3 1.1-.5 1.7-.6.4 0 .7.2.7.6 0 .4-.2.8-.4 1.2-.3.5-.6.9-.9 1.3l-.6.4c-.1.1-.1.1 0 .1m.7-2.9c-1.3.1-2.1 1-2.4 2.7 1.1 0 1.9-.9 2.4-2.7m3 2.8c.2 0 .4-.1.7-.4v.5c-.3.3-.7.4-1.1.5-.1 0-.3 0-.4-.1-.3.2-.7.3-1 .3H12c-.1-.3-.2-.6-.2-.9 0-.8.4-1.6 1-2.2.6-.6 1.3-1 2.1-1.2 0 .1 0 .2-.2.3-.3.2-.5.3-.5.3-.8.7-1.3 1.6-1.3 2.7 0 .2 0 .4.1.6 1.2-.5 2-1.6 2-2.9 0-.2-.2-.3-.3-.2h-.1c.2-.4.6-.6 1-.5.2.2.3.5.3.8 0 .5-.2 1-.5 1.4-.3.5-.7.9-1.2 1.3v-.3"/><path d="M16.1 26.6c-.4.5-.8.9-1.2 1.3v-.5c.8-.5 1.4-1.3 1.8-2.1.1-.4.3-.8.5-1.3.1-.4.5-.7 1-.7.2 0 .3 0 .5.1-.1.2-.2.4-.4.6-.1.2-.3.4-.3.6.1.1.2.1.2.1.1 0 .3 0 .4-.1.2 0 .3 0 .5-.1.2 0 .3 0 .5.1-.2.7-.6 1.3-1.1 1.7-.6.4-1 .9-1.3 1.6.6.1 1.3-.1 1.8-.5v.5c-.5.5-1.2.8-2 .8-.3 0-.6-.1-.9-.1 0-.6.2-1.3.6-1.8.4-.4.7-.9 1-1.3-.7.3-1.2.6-1.6 1.1"/><path d="M21.6 27.9c-.4.5-1 .8-1.6.9-.2 0-.4-.1-.6-.1-.1-.1-.2-.3-.3-.5 0-.2.1-.4.2-.6-.2.2-.4.3-.5.4v-.5c.7-.6 1.3-1.4 1.7-2.2-.1-.1-.2-.1-.3 0-.1 0-.2 0-.3-.1.1-.5.4-.7 1-.6.5-.6.9-1.3 1.3-2 .5-.9.9-1.5 1.1-1.7h.7c.1 0 .2 0 .3.1-.9 1.6-1.6 2.8-2.1 3.6.1.1.1.1.2.1s.2 0 .3-.1c.1 0 .2 0 .3-.1h.1c-.1.5-.6.7-1.4.8-.6.9-1.1 1.8-1.5 2.8.1.1.2.1.3.1.4-.1.8-.3 1.1-.6v.3zm10.2-7.6v.1c0 .1-.1.3-.2.4l-.3.3c-.1.2-.4.5-.7.9-.3.3-.5.7-.8 1-.3.3-.4.7-.6 1.1 0 .6-.1 1.2-.1 1.8 0 .5-.2 1-.4 1.5-.3.4-.6.7-1 .9-.5.3-1 .4-1.6.3-.5.5-.9 1.1-1.3 1.6-.3.6-.9 1.1-1.5 1.3.2-.4.6-.9 1.1-1.5.5-.7.9-1.2 1.1-1.5-.1-.1-.1-.2-.3-.3l-.3-.3c-.1-.8.2-1.6.7-2.2.5-.5 1.1-.8 1.9-.9 0 .2-.1.3-.3.4-.2.1-.4.1-.7.2-.5.4-.8 1-.8 1.7 0 .2.1.5.2.7.5-.6 1.2-1.5 2.2-2.8 0-2.3 1.5-4.3 3.7-4.7M26.4 28c.1 0 .2.1.3.1-.1 0 .1 0 .7-.1.4-.6.6-1.2.7-1.9v-.3c-.6.6-1.2 1.4-1.7 2.2m4.4-6.6c0-.2 0-.3.2-.4.1-.1.2-.2.2-.4-.5.2-.8.5-1.1.9-.3.4-.5.9-.5 1.4.2-.3.4-.5.6-.8.2-.2.4-.5.6-.7m.7 6.5c-.4.5-1 .8-1.6.9-.2 0-.4-.1-.7-.1-.1-.1-.2-.3-.2-.5s.1-.4.2-.6c-.2.1-.3.3-.5.4v-.5c.7-.6 1.3-1.4 1.7-2.2-.1-.1-.2-.1-.3 0-.1 0-.2 0-.3-.1.1-.5.4-.7 1-.6.5-.6.9-1.3 1.3-2 .3-.6.7-1.2 1-1.7h.7c.1 0 .2 0 .3.1-.9 1.6-1.6 2.8-2.1 3.6.1.1.1.1.2.1s.2 0 .3-.1c.1 0 .2 0 .3-.1h.1c-.1.5-.6.7-1.4.8-.5.7-1 1.7-1.4 2.6.1 0 .2.1.3.1.4-.1.8-.3 1.1-.6v.5z"/><path d="M36.6 24.6h.5c-.6 1.2-2.2 3.8-4.8 7.9h-1.1c1-1.5 1.9-3 2.8-4.6-.2.2-.5.4-.8.5-.3.2-.7.3-1 .3-.1-.3-.2-.6-.2-.9-.2 0-.3.1-.4.2v-.5c1-.7 1.8-1.7 2.4-2.8h.9c.1 0 .2 0 .2.1-.8 1.3-1.4 2.3-1.8 2.9.6-.3 1.1-.8 1.5-1.3.9-1.1 1.4-1.7 1.4-1.7.1 0 .2-.1.4-.1m.2 3.9h-.4c-.2-.1-.3-.3-.3-.5 0-.4.2-.8.4-1.1 0 0-.1.2-.4.5l-.6.6v-.5c.5-.3.9-.8 1.2-1.2.1-.1.4-.6.9-1.5.5-.8 1.2-2.3 2.1-4.3.5-.1 1-.2 1.3-.2-.3.7-1 1.9-2 3.7-.9 1.6-1.5 2.9-2 3.9.1 0 .1.1.2.1.4 0 .7-.2 1-.5v.5c-.3.3-.8.5-1.4.5"/><path d="M39.5 28.6h-.3c-.3 0-.5-.3-.5-.7 0-.2 0-.3.1-.5l-.5.5v-.5c.3-.4.7-.7.9-1.1.3-.4.6-.9.9-1.3.4-.4 1-.6 1.6-.6h.4c0 .1.1.2 0 .3 0 .7-.6 1.3-1.9 1.5-.1.3-.2.5-.3.7-.1.3-.2.5-.2.8 0 .1.1.1.2.1.5 0 .9-.2 1.3-.4v.4c-.4.5-1 .8-1.7.8m1.2-2.9c.2 0 .4-.1.6-.2l.1-.4c-.3 0-.6.2-.7.6"/><path d="M93.8 43.4H-73.8v-54.7H93.8v54.7zM-72 41.6H92V-9.6H-72v51.2z"/></g></svg>