<svg xmlns="http://www.w3.org/2000/svg" viewBox="-84.5 -23.5 300 80"><path fill="#FFF" d="M61.5 15.6c0 2.8-1.2 4.5-3.6 5.2l4.4 6.1h-3.6l-4-5.6H51v5.6h-2.8V10.1h6.3c2.6 0 4.4.4 5.5 1.3 1 .9 1.5 2.3 1.5 4.2zM57.7 18c.6-.5.9-1.3.9-2.4 0-1.1-.3-1.9-.9-2.3-.6-.4-1.7-.6-3.2-.6h-3.6v6h3.5c1.7 0 2.8-.2 3.3-.7zm22 6.6c-1.7 1.7-3.8 2.5-6.3 2.5s-4.6-.8-6.3-2.5c-1.7-1.7-2.5-3.7-2.5-6.2s.8-4.5 2.5-6.2c1.7-1.7 3.8-2.5 6.3-2.5s4.6.8 6.3 2.5c1.7 1.7 2.5 3.7 2.5 6.2s-.8 4.6-2.5 6.2zm-2.1-10.5c-1.1-1.2-2.6-1.8-4.2-1.8s-3.1.6-4.2 1.8c-1.1 1.2-1.7 2.6-1.7 4.3 0 1.7.6 3.1 1.7 4.3 1.1 1.2 2.6 1.8 4.2 1.8s3.1-.6 4.2-1.8c1.1-1.2 1.7-2.6 1.7-4.3 0-1.7-.6-3.1-1.7-4.3zm19.8 4.7h2.8v5.7c-1.6 1.8-3.9 2.6-6.8 2.6-2.5 0-4.6-.8-6.2-2.5-1.7-1.6-2.5-3.7-2.5-6.2s.9-4.6 2.6-6.2c1.7-1.7 3.8-2.5 6.2-2.5s4.4.7 6 2.1L98 14c-.7-.6-1.3-.9-2-1.2-.7-.2-1.4-.3-2.3-.3-1.7 0-3.1.5-4.3 1.6-1.2 1.1-1.7 2.5-1.7 4.3s.6 3.2 1.7 4.3c1.1 1.1 2.5 1.6 4.1 1.6 1.6 0 2.9-.3 4-1l-.1-4.5zm20-3.2c0 2.8-1.2 4.5-3.6 5.2l4.4 6.1h-3.6l-4-5.6h-3.7v5.6H104V10.1h6.2c2.6 0 4.4.4 5.5 1.3 1.2.9 1.7 2.3 1.7 4.2zm-3.8 2.4c.6-.5.9-1.3.9-2.4 0-1.1-.3-1.9-.9-2.3-.6-.4-1.7-.6-3.2-.6h-3.6v6h3.5c1.7 0 2.8-.2 3.3-.7zm29.4 6.6c-1.7 1.7-3.8 2.5-6.3 2.5s-4.6-.8-6.3-2.5c-1.7-1.7-2.5-3.7-2.5-6.2s.9-4.5 2.5-6.2c1.7-1.7 3.8-2.5 6.3-2.5s4.6.8 6.3 2.5c1.7 1.7 2.5 3.7 2.5 6.2.1 2.5-.8 4.6-2.5 6.2zm-2-10.5c-1.1-1.2-2.5-1.8-4.2-1.8-1.7 0-3.1.6-4.2 1.8-1.1 1.2-1.7 2.6-1.7 4.3 0 1.7.6 3.1 1.7 4.3 1.1 1.2 2.6 1.8 4.2 1.8 1.7 0 3.1-.6 4.2-1.8 1.1-1.2 1.7-2.6 1.7-4.3 0-1.7-.6-3.1-1.7-4.3zM121.5 13v13.9h2.8V10.1v.1zm38.7-2.8v-.1h-13.1v2.6h5.1v14.2h2.9V12.7h2.6zM39.6 20l2.5-2.6h-5.7v-4.6h5.7l2.7-2.7H33.6v16.8h2.8V20h3.2z"/><g fill="#FFF"><path d="M-.6 21.5L-4 29.6l-3.5-11.2-.4 10.8-5.5-4.1 3.7 7.7S-6.5 32-4 32c2.4 0 5.7.8 5.7.8l5.1-8-6.9 4.7-.5-8z"/><path d="M-29.3-8.4v49.8h49.8V-8.4h-49.8zM13 22.8c-.5 0-.8 0-1.8.5-.9.5-1.5 1.2-2.1 2.2-.6 1-5.9 10-5.9 10s-2.9-.9-7.2-.9-7.3.9-7.3.9l-8.2-17.1s-.3-.9-.6-1.1c-.3-.2-.9-.4-1.2-.4-1.9 0-3.5-1.6-3.5-3.5s1.6-3.5 3.5-3.5 3.5 1.6 3.5 3.5c0 .4-.1.8-.2 1.1-.1.2-.2.8-.1 1 .1.2 1.4 1.8 1.4 1.8s5.1 5.8 5.6 6.1c.5.3.6.3.9.3.3 0 .1-1.4.1-1.4s-.7-12.1-.9-14c-.2-1.9-.3-2.1-.5-2.4-.2-.3-.6-1.1-.9-1.2-1.3-.6-2.1-1.9-2.1-3.4 0-2.1 1.7-3.9 3.9-3.9s3.9 1.7 3.9 3.9c0 .9-.3 1.7-.8 2.3-.3.4-1 1.4-1 2.1 0 .8 1 3.7 1 3.7L-4.4 20s.2 1.1.5 1.2c.3.1.6-.9.6-.9s2.4-6.7 2.7-7.6c.3-.9.9-2.4.9-3.3 0-.6-.8-1.4-1-1.8-.4-.5-.5-1-.5-1.6 0-2 1.6-3.6 3.6-3.6S6 4 6 6c0 1.3-.7 2.5-1.8 3.1-.3.2-1 .7-1.2 1.4-.2.7-.3 1.9-.4 3.2s-.8 9.2-.8 9.2-.2 1.5.1 1.7c.3.2 2.1-.7 2.1-.7s4.4-2 5.2-2.7c.8-.7.7-1.1.7-1.4 0-1.7 1.4-3 3-3 1.7 0 3 1.4 3 3s-1.3 3-2.9 3z"/></g></svg>