<svg width="177" height="40" xmlns="http://www.w3.org/2000/svg" xmlns:xlink="http://www.w3.org/1999/xlink"><defs><path id="a" d="M0 40h176.59V0H0z"/></defs><g fill="none" fill-rule="evenodd"><path d="M27.07 0l-.27 2.83-7.687-1.696 6.614 12.11-7.699 16.775-4.389-8.001L0 18.234l6.682 14.305 9.261 2.022L13.446 40h27.997l-9.156-5.97 2.361-4.909 8.486 3.536-4.549-11.72.017-.035-4.507-9.244L48.36 7.153 27.069 0zm1.358 2.092l14.927 5.015-15.879 5.016.952-10.031zm-6.32 1.29l4.406.973-.488 6.201-3.918-7.173zm5.398 10.357L32.6 12.13l4.279 8.777-5.316 11.05-4.058-18.218zm-8.3 17.431l7.132-15.54 3.941 17.691-11.074-2.15zm-11.444.018L2.83 20.628l9.764 2.71 4.628 8.436-.616 1.344-8.844-1.93zm27.56-3.466l2.343-4.871 2.707 6.976-5.05-2.105zM18.54 32.62l11.212 2.178-3.49 3.652H15.865l2.676-5.83zm12.869 2.689l4.817 3.14h-7.819l3.002-3.14zm32.3-8.77c-.728.42-1.57.633-2.531.633-.854 0-1.617-.19-2.29-.563a4.056 4.056 0 01-1.58-1.548c-.382-.654-.572-1.392-.572-2.211 0-.842.19-1.591.573-2.246a3.967 3.967 0 011.578-1.528c.674-.364 1.443-.545 2.31-.545 1.322 0 2.452.469 3.388 1.405l1.44-1.405a5.541 5.541 0 00-2.123-1.493c-.845-.339-1.781-.51-2.81-.51-1.265 0-2.404.273-3.416.817a6.058 6.058 0 00-2.38 2.259c-.572.958-.86 2.04-.86 3.246 0 1.205.288 2.29.86 3.25a6.077 6.077 0 002.373 2.255c1.006.544 2.136.816 3.389.816.889 0 1.756-.133 2.597-.402a6.935 6.935 0 002.212-1.16V22.71h-2.158v3.828zm19.929-1.469a4.038 4.038 0 01-1.547 1.548c-.655.367-1.393.554-2.212.554-.82 0-1.557-.187-2.211-.554a4.017 4.017 0 01-1.548-1.547c-.373-.661-.56-1.402-.56-2.221 0-.82.187-1.56.56-2.221a3.987 3.987 0 011.548-1.544c.654-.37 1.392-.554 2.211-.554.82 0 1.557.184 2.212.554a4.02 4.02 0 011.547 1.544c.373.661.56 1.401.56 2.22 0 .82-.187 1.56-.56 2.222m2-5.467a6.054 6.054 0 00-2.37-2.26c-1.007-.543-2.136-.815-3.389-.815-1.253 0-2.382.272-3.388.816a6.047 6.047 0 00-2.37 2.265c-.576.968-.86 2.047-.86 3.24 0 1.196.284 2.275.86 3.24a6.047 6.047 0 002.37 2.265c1.006.544 2.135.816 3.388.816 1.253 0 2.382-.272 3.388-.816a6.068 6.068 0 002.37-2.256c.576-.958.86-2.044.86-3.25 0-1.204-.284-2.287-.86-3.245m18.208-.861c-.42-.658-1.025-1.16-1.816-1.512-.791-.351-1.718-.525-2.784-.525h-5.056v12.291h2.281V18.636h2.67c.994 0 1.75.212 2.266.632.515.421.772 1.026.772 1.81 0 .785-.257 1.386-.772 1.807-.516.424-1.272.632-2.266.632h-2.67l1.936 1.934h.839c1.066 0 1.993-.178 2.784-.529.79-.351 1.395-.857 1.816-1.518.42-.662.633-1.437.633-2.326 0-.901-.212-1.68-.633-2.335m16.822-2.037v5.075h-6.356v-5.075h-2.285v12.291h2.285V23.73h6.356v5.268h2.28V16.706z" fill="#FEFEFE"/><mask id="b" fill="#fff"><use xlink:href="#a"/></mask><path d="M131.519 18.62h9.216v-1.914h-9.216v1.914zm0 5.075h9.216v-1.88h-9.216v1.88zm0 5.302h9.216v-1.914h-9.216v1.914zm24.703-4.04c.844-.326 1.49-.826 1.942-1.49.45-.668.674-1.465.674-2.389 0-.901-.212-1.68-.633-2.335-.42-.658-1.025-1.16-1.816-1.512-.79-.351-1.718-.525-2.784-.525h-5.056v12.291h2.285V18.636h2.667c.993 0 1.75.212 2.265.632.516.421.772 1.026.772 1.81 0 .785-.256 1.39-.772 1.816-.516.427-1.272.642-2.265.642h-.75l1.31 1.86h.019l2.512 3.601h2.458l-2.828-4.04zm18.118-8.251l-3.631 5.986-3.6-5.986h-2.44l4.828 7.988v4.303h2.281V24.66l4.812-7.954z" fill="#FEFEFE" mask="url(#b)"/><path fill="#FEFEFE" mask="url(#b)" d="M131.519 28.997h1.906v-7.182h-1.906z"/></g></svg>