<svg xmlns="http://www.w3.org/2000/svg" viewBox="0 0 145 28.4"><path d="M44.9 16.4c0-5 3.8-9.1 9.1-9.1 2.6 0 4.5.7 5.9 1.9.3.3.8.8.8 1.7 0 1.2-1 2.2-2.2 2.2-.6 0-1.1-.3-1.4-.5-.9-.7-1.8-1.1-3.1-1.1-2.5 0-4.2 2.2-4.2 4.7v.1c0 2.7 1.7 4.8 4.4 4.8 1.3 0 2.3-.5 3.2-1.2.3-.2.7-.5 1.3-.5 1.2 0 2.1.9 2.1 2.1 0 .6-.3 1.2-.7 1.6-1.5 1.3-3.3 2.2-6.2 2.2-5.1.1-9-3.9-9-8.9zm35.2 6.4c0 1.4-1.1 2.5-2.5 2.5s-2.5-1.1-2.5-2.5v-.2c-1.1 1.5-2.6 2.8-5.1 2.8-3.7 0-5.9-2.5-5.9-6.5v-9c0-1.4 1.1-2.5 2.5-2.5s2.5 1.1 2.5 2.5v7.4c0 2.3 1.1 3.5 3 3.5s3.1-1.2 3.1-3.5V9.9c0-1.4 1.1-2.5 2.5-2.5s2.5 1.1 2.5 2.5v12.9zm5.3-2.7v-8.2h-.2c-1.2 0-2.1-.9-2.1-2.1s.9-2.1 2.1-2.1h.2V5.5c0-1.4 1.1-2.5 2.5-2.5s2.5 1.1 2.5 2.5v2.2h2.2c1.2 0 2.1.9 2.1 2.1s-.9 2.1-2.1 2.1h-2.2v7.4c0 1.1.5 1.7 1.6 1.7h.6c1.1 0 2 .9 2 2 0 .9-.6 1.6-1.3 1.9-.9.4-1.8.5-2.8.5-3.1-.1-5.1-1.3-5.1-5.3zM98 9.9c0-1.4 1.1-2.5 2.5-2.5s2.5 1.1 2.5 2.5v.2c1.1-1.5 2.6-2.8 5.1-2.8 2.3 0 4 1 4.9 2.8 1.5-1.8 3.3-2.8 5.7-2.8 3.7 0 5.9 2.2 5.9 6.4v9.1c0 1.4-1.1 2.5-2.5 2.5s-2.5-1.1-2.5-2.5v-7.4c0-2.3-1-3.5-2.9-3.5s-3 1.2-3 3.5v7.4c0 1.4-1.1 2.5-2.5 2.5s-2.5-1.1-2.5-2.5v-7.4c0-2.3-1-3.5-2.9-3.5s-3 1.2-3 3.5v7.4c0 1.4-1.1 2.5-2.5 2.5S98 24.1 98 22.8V9.9zm39.1 15.5c-5.2 0-9.1-3.7-9.1-9v-.1c0-5 3.5-9.1 8.6-9.1 5.8 0 8.4 4.8 8.4 8.4 0 1.4-1 2.4-2.3 2.4h-9.8c.5 2.2 2 3.4 4.3 3.4 1.4 0 2.5-.4 3.5-1.2.4-.3.7-.4 1.2-.4 1.1 0 1.9.8 1.9 1.9 0 .6-.3 1.1-.6 1.5-1.6 1.4-3.6 2.2-6.1 2.2zm3.2-10.4c-.3-2.2-1.6-3.7-3.7-3.7-2 0-3.4 1.5-3.8 3.7h7.5z" fill="#231F20"/><path d="M10.2 23.8l-.9.9c-.2.2-.6.2-.8 0L.2 16.4c-.2-.2-.2-.6 0-.8l8.3-8.3c.2-.3.6-.3.8-.1l.9.9c.2.2.2.6 0 .8l-7 7 7 7c.2.3.2.6 0 .9zM20.8 4.7l-6.7 23c-.1.3-.4.5-.7.4l-1.1-.3c-.3-.1-.5-.4-.4-.7l6.7-23c.1-.3.4-.5.7-.4l1.1.3c.3.1.4.4.4.7zm11.7 11.7l-8.3 8.3c-.2.2-.6.2-.8 0l-.9-.9c-.2-.2-.2-.6 0-.8l7-7-7-7c-.2-.2-.2-.6 0-.8l.9-.9c.2-.2.6-.2.8 0l8.3 8.3c.2.2.2.5 0 .8z"/></svg>