<?xml version="1.0" encoding="utf-8"?>
<!-- Generator: Adobe Illustrator 18.0.0, SVG Export Plug-In . SVG Version: 6.00 Build 0)  -->
<!DOCTYPE svg PUBLIC "-//W3C//DTD SVG 1.1//EN" "http://www.w3.org/Graphics/SVG/1.1/DTD/svg11.dtd">
<svg version="1.1" id="Warstwa_1" xmlns="http://www.w3.org/2000/svg" xmlns:xlink="http://www.w3.org/1999/xlink" x="0px" y="0px"
	 viewBox="0 0 145 28.4" enable-background="new 0 0 145 28.4" xml:space="preserve">
<g>
	<path fill="#FFFFFF" d="M44.9,16.4L44.9,16.4c0-5,3.8-9.1,9.1-9.1c2.6,0,4.5,0.7,5.9,1.9c0.3,0.3,0.8,0.8,0.8,1.7
		c0,1.2-1,2.2-2.2,2.2c-0.6,0-1.1-0.3-1.4-0.5c-0.9-0.7-1.8-1.1-3.1-1.1c-2.5,0-4.2,2.2-4.2,4.7v0.1c0,2.7,1.7,4.8,4.4,4.8
		c1.3,0,2.3-0.5,3.2-1.2c0.3-0.2,0.7-0.5,1.3-0.5c1.2,0,2.1,0.9,2.1,2.1c0,0.6-0.3,1.2-0.7,1.6c-1.5,1.3-3.3,2.2-6.2,2.2
		C48.8,25.4,44.9,21.4,44.9,16.4z"/>
	<path fill="#FFFFFF" d="M80.1,22.8c0,1.4-1.1,2.5-2.5,2.5c-1.4,0-2.5-1.1-2.5-2.5v-0.2c-1.1,1.5-2.6,2.8-5.1,2.8
		c-3.7,0-5.9-2.5-5.9-6.5v-9c0-1.4,1.1-2.5,2.5-2.5s2.5,1.1,2.5,2.5v7.4c0,2.3,1.1,3.5,3,3.5s3.1-1.2,3.1-3.5V9.9
		c0-1.4,1.1-2.5,2.5-2.5c1.4,0,2.5,1.1,2.5,2.5V22.8z"/>
	<path fill="#FFFFFF" d="M85.4,20.1v-8.2h-0.2c-1.2,0-2.1-0.9-2.1-2.1s0.9-2.1,2.1-2.1h0.2V5.5c0-1.4,1.1-2.5,2.5-2.5
		c1.4,0,2.5,1.1,2.5,2.5v2.2h2.2c1.2,0,2.1,0.9,2.1,2.1s-0.9,2.1-2.1,2.1h-2.2v7.4c0,1.1,0.5,1.7,1.6,1.7c0.2,0,0.5,0,0.6,0
		c1.1,0,2,0.9,2,2c0,0.9-0.6,1.6-1.3,1.9c-0.9,0.4-1.8,0.5-2.8,0.5C87.4,25.3,85.4,24.1,85.4,20.1z"/>
	<path fill="#FFFFFF" d="M98,9.9c0-1.4,1.1-2.5,2.5-2.5s2.5,1.1,2.5,2.5v0.2c1.1-1.5,2.6-2.8,5.1-2.8c2.3,0,4,1,4.9,2.8
		c1.5-1.8,3.3-2.8,5.7-2.8c3.7,0,5.9,2.2,5.9,6.4v9.1c0,1.4-1.1,2.5-2.5,2.5c-1.4,0-2.5-1.1-2.5-2.5v-7.4c0-2.3-1-3.5-2.9-3.5
		c-1.9,0-3,1.2-3,3.5v7.4c0,1.4-1.1,2.5-2.5,2.5c-1.4,0-2.5-1.1-2.5-2.5v-7.4c0-2.3-1-3.5-2.9-3.5s-3,1.2-3,3.5v7.4
		c0,1.4-1.1,2.5-2.5,2.5S98,24.1,98,22.8V9.9z"/>
	<path fill="#FFFFFF" d="M137.1,25.4c-5.2,0-9.1-3.7-9.1-9v-0.1c0-5,3.5-9.1,8.6-9.1c5.8,0,8.4,4.8,8.4,8.4c0,1.4-1,2.4-2.3,2.4
		h-9.8c0.5,2.2,2,3.4,4.3,3.4c1.4,0,2.5-0.4,3.5-1.2c0.4-0.3,0.7-0.4,1.2-0.4c1.1,0,1.9,0.8,1.9,1.9c0,0.6-0.3,1.1-0.6,1.5
		C141.6,24.6,139.6,25.4,137.1,25.4z M140.3,15c-0.3-2.2-1.6-3.7-3.7-3.7c-2,0-3.4,1.5-3.8,3.7H140.3z"/>
</g>
<text transform="matrix(1 0 0 1 40.6008 22.1781)" display="none" fill="#231F20" font-family="'GothamRounded-Bold'" font-size="32.4696">cutme</text>
<path fill="#FFFFFF" d="M10.2,23.8l-0.9,0.9c-0.2,0.2-0.6,0.2-0.8,0l-8.3-8.3c-0.2-0.2-0.2-0.6,0-0.8l8.3-8.3C8.7,7,9.1,7,9.3,7.2
	l0.9,0.9c0.2,0.2,0.2,0.6,0,0.8l-7,7l7,7C10.4,23.2,10.4,23.5,10.2,23.8L10.2,23.8z M20.8,4.7l-6.7,23c-0.1,0.3-0.4,0.5-0.7,0.4
	l-1.1-0.3c-0.3-0.1-0.5-0.4-0.4-0.7l6.7-23c0.1-0.3,0.4-0.5,0.7-0.4L20.4,4C20.7,4.1,20.8,4.4,20.8,4.7z M32.5,16.4l-8.3,8.3
	c-0.2,0.2-0.6,0.2-0.8,0l-0.9-0.9c-0.2-0.2-0.2-0.6,0-0.8l7-7l-7-7c-0.2-0.2-0.2-0.6,0-0.8l0.9-0.9c0.2-0.2,0.6-0.2,0.8,0l8.3,8.3
	C32.7,15.8,32.7,16.1,32.5,16.4L32.5,16.4z"/>
</svg>
